Coordinates
version=1
nRows=32
nColumns=18
inDegrees=yes

Units are S.I. units (second, meters, Newtons, ...)
If the header above contains a line with 'inDegrees', this indicates whether rotational values are in degrees (yes) or radians (no).

endheader
time	ground_thorax_rot_x	ground_thorax_rot_y	ground_thorax_rot_z	ground_thorax_tx	ground_thorax_ty	ground_thorax_tz	clav_prot	clav_elev	scapula_abduction	scapula_elevation	scapula_upward_rot	scapula_winging	plane_elv	shoulder_elv	axial_rot	elbow_flexion	pro_sup
      3.38000000	     -6.60292121	     -2.27391847	     -4.37413957	     -0.10859048	      0.02619915	      0.03564842	    -25.65990486	    -23.88401868	    -12.03985228	    -19.15653525	     16.47815984	     38.86020525	      6.00000000	     59.15100409	    -30.11038420	     35.31790419	     63.92270238
      3.40000000	     -6.35590761	     -2.54233124	     -4.61484109	     -0.10778458	      0.02497185	      0.03668774	    -25.44749497	    -23.66654405	    -12.42091238	    -18.82965960	     15.59384184	     38.76046956	      6.00000000	     57.98122553	    -29.30062641	     35.04764720	     63.92270238
      3.42000000	     -5.91507509	     -2.50762197	     -4.80846205	     -0.10689765	      0.02402759	      0.03751750	    -25.46024483	    -23.44019145	    -13.31596132	    -18.44737585	     14.41633240	     38.75336079	      6.00000000	     57.32511949	    -26.84888654	     34.60809117	     63.92270238
      3.44000000	     -5.67548249	     -2.71807066	     -5.13219219	     -0.10573657	      0.02264081	      0.03857016	    -25.26943552	    -23.18238620	    -13.72582644	    -18.08278320	     13.54098604	     38.63901613	      6.00000000	     56.33233078	    -26.06265053	     34.16571943	     63.92270238
      3.46000000	     -5.25358587	     -2.67255386	     -5.40039479	     -0.10451753	      0.02161916	      0.03949497	    -25.29521914	    -22.96107942	    -14.64619401	    -17.67856394	     12.30297124	     38.66286800	      6.00000000	     55.90146903	    -23.49939384	     33.55279796	     63.92270238
      3.48000000	     -4.99047830	     -2.81294350	     -5.81806642	     -0.10308412	      0.02011377	      0.04055616	    -25.14535556	    -22.64999641	    -15.03904429	    -17.29451572	     11.56789314	     38.51314287	      6.00000000	     54.99756257	    -22.76802665	     32.94699747	     63.92270238
      3.50000000	     -4.55649399	     -2.73348279	     -6.22230721	     -0.10158949	      0.01885328	      0.04150655	    -25.19923041	    -22.34019011	    -15.81763491	    -16.88522928	     10.67189228	     38.44770654	      6.00000000	     54.47693839	    -20.30117488	     32.31781297	     63.92270238
      3.52000000	     -4.19435809	     -2.76865007	     -6.58280752	     -0.10003690	      0.01762771	      0.04261005	    -25.17939943	    -22.02694689	    -16.43555622	    -16.47971436	      9.84916864	     38.35730139	      6.00000000	     53.81751562	    -18.64848445	     31.46472253	     63.92270238
      3.54000000	     -3.95985383	     -2.85998791	     -7.10810473	     -0.09838049	      0.01598008	      0.04370804	    -25.05691695	    -21.65378665	    -16.76344350	    -16.07962866	      9.30334936	     38.16423168	      6.00000000	     52.94747057	    -18.09403666	     30.75902710	     63.92270238
      3.56000000	     -3.44892701	     -2.80025580	     -7.48339113	     -0.09672089	      0.01485406	      0.04480579	    -25.19640097	    -21.22930748	    -17.39849183	    -15.69271901	      8.92921348	     37.98770207	      6.00000000	     52.09420799	    -15.61132274	     29.87941734	     63.92270238
      3.58000000	     -3.11875485	     -2.81426403	     -7.93624700	     -0.09502595	      0.01348292	      0.04595665	    -25.22676373	    -20.83394180	    -17.91448108	    -15.29439236	      8.44464396	     37.82613057	      6.00000000	     51.26704303	    -14.07384126	     29.05803638	     63.92270238
      3.60000000	     -2.79434002	     -2.84287660	     -8.39485035	     -0.09332020	      0.01210799	      0.04713768	    -25.27155193	    -20.40727223	    -18.38166627	    -14.90359139	      8.10106408	     37.63335109	      6.00000000	     50.32625968	    -12.63017139	     28.23161724	     63.92270238
      3.62000000	     -2.47837450	     -2.88227811	     -8.84996286	     -0.09159281	      0.01073887	      0.04834474	    -25.33941841	    -19.95534172	    -18.83298973	    -14.51759237	      7.85965919	     37.42192569	      6.00000000	     49.29431318	    -11.24172213	     27.40370397	     63.92270238
      3.64000000	     -2.36171410	     -3.01825203	     -9.42220521	     -0.08984253	      0.00904095	      0.04957622	    -25.24538443	    -19.53563164	    -19.12571645	    -14.10185281	      7.43437029	     37.22477695	      6.00000000	     48.38854482	    -10.91013920	     26.73466039	     63.92270238
      3.66000000	     -1.88762916	     -3.00081709	     -9.77415473	     -0.08808880	      0.00800446	      0.05080246	    -25.52900173	    -18.98964850	    -19.67615658	    -13.76658434	      7.65815595	     36.95167985	      6.00000000	     46.95968793	     -8.75218837	     25.74210583	     63.92270238
      3.68000000	     -1.65996347	     -3.10859714	    -10.22305029	     -0.08630103	      0.00662368	      0.05210083	    -25.63976580	    -18.50346396	    -20.07514338	    -13.40770945	      7.63495924	     36.71625508	      6.00000000	     45.65914424	     -7.63245399	     24.94666546	     63.92270238
      3.70000000	     -1.55300205	     -3.29244703	    -10.72551157	     -0.08449280	      0.00507526	      0.05341159	    -25.59668447	    -18.03999136	    -20.39952489	    -12.98268453	      7.30305958	     36.51525574	      6.00000000	     44.64131673	     -7.32181956	     24.16805859	     63.92270238
      3.72000000	     -1.19887121	     -3.32320578	    -11.16086780	     -0.08261726	      0.00383700	      0.05463164	    -25.90782869	    -17.45296605	    -20.84170271	    -12.69122459	      7.82115094	     36.19449747	      6.00000000	     42.90338788	     -5.83230473	     23.27365400	     63.92270238
      3.74000000	     -0.96080023	     -3.42664401	    -11.61097407	     -0.08072480	      0.00246038	      0.05588472	    -26.05865542	    -16.87700685	    -21.25412847	    -12.30375275	      7.94031141	     35.91828386	      6.00000000	     41.51099550	     -5.06294258	     22.43712591	     63.92270238
      3.76000000	     -0.76748782	     -3.55610163	    -12.10024895	     -0.07873723	      0.00102597	      0.05713459	    -26.21176169	    -16.32120239	    -21.60973321	    -11.95378817	      8.14933856	     35.64330102	      6.00000000	     40.03939201	     -4.48641485	     21.55957378	     63.92270238
      3.78000000	     -0.60058986	     -3.69832655	    -12.59602705	     -0.07667667	     -0.00041364	      0.05837089	    -26.35993540	    -15.76427471	    -21.94056637	    -11.61100661	      8.38788496	     35.36783176	      6.00000000	     38.54612985	     -4.08968100	     20.63385169	     63.92270238
      3.80000000	     -0.57078066	     -3.93744102	    -13.10315575	     -0.07457181	     -0.00196045	      0.05968881	    -26.31671686	    -15.26435778	    -22.25581359	    -11.16400714	      8.07557149	     35.18638522	      6.00000000	     37.55551608	     -4.08117563	     19.81740606	     63.92270238
      3.82000000	     -0.24582119	     -3.98159000	    -13.64568823	     -0.07237623	     -0.00336473	      0.06079004	    -26.64381253	    -14.60747684	    -22.54481955	    -10.91766081	      8.95516950	     34.79548923	      6.00000000	     35.63256216	     -3.77968966	     18.76296151	     63.92270238
      3.84000000	     -0.19582595	     -4.21219146	    -14.12972457	     -0.07013091	     -0.00478697	      0.06205884	    -26.63230947	    -14.10257921	    -22.85148934	    -10.49551219	      8.74592104	     34.61553392	      6.00000000	     34.62789862	     -3.88410370	     17.73884643	     63.92270238
      3.86000000	      0.05732329	     -4.26299821	    -14.73435292	     -0.06783827	     -0.00628848	      0.06306035	    -26.87521847	    -13.46471663	    -23.04603544	    -10.24076191	      9.54177330	     34.23950365	      6.00000000	     32.88717960	     -4.11256696	     16.69079702	     63.92270238
      3.88000000	      0.20994436	     -4.43292068	    -15.28323288	     -0.06547399	     -0.00773419	      0.06422056	    -26.98707790	    -12.89633697	    -23.25315173	     -9.92074651	      9.89565381	     33.95843347	      6.00000000	     31.53955726	     -4.54875668	     15.66766531	     63.92270238
      3.90000000	      0.25643201	     -4.62988633	    -15.78674575	     -0.06312086	     -0.00906270	      0.06534916	    -26.97275894	    -12.42341736	    -23.50856982	     -9.53753744	      9.74316294	     33.80067223	      6.00000000	     30.67553884	     -4.81514293	     14.53801355	     63.92270238
      3.92000000	      0.37359696	     -4.78612363	    -16.34743179	     -0.06077977	     -0.01037164	      0.06637090	    -27.02679880	    -11.94370855	    -23.66786732	     -9.24485636	      9.95566334	     33.58306843	      6.00000000	     29.61092045	     -5.26695530	     13.34017854	     63.92270238
      3.94000000	      0.45824362	     -5.00098099	    -16.83509513	     -0.05839667	     -0.01156059	      0.06749295	    -27.05900616	    -11.47773751	    -23.84649107	     -8.93458287	     10.06153976	     33.39402235	      6.00000000	     28.65056025	     -5.71119249	     12.20926903	     63.92270238
      3.96000000	      0.52358078	     -5.12996849	    -17.39766974	     -0.05613490	     -0.01287022	      0.06831661	    -27.09098487	    -11.01124484	    -23.96281126	     -8.65233916	     10.27792859	     33.18462981	      6.00000000	     27.70855719	     -6.23705842	     11.11580646	     63.92270238
      3.98000000	      0.72412824	     -5.27571957	    -18.09501336	     -0.05394966	     -0.01437662	      0.06916940	    -27.23189441	    -10.41170379	    -23.85570809	     -8.48019090	     11.28265635	     32.77796807	      6.00000000	     26.27848041	     -8.41282463	     10.40541885	     63.92270238
      4.00000000	      0.71207274	     -5.45209087	    -18.56440757	     -0.05180648	     -0.01542511	      0.07001878	    -27.20811914	    -10.04656249	    -24.01966245	     -8.19085058	     11.18709894	     32.67023288	      6.00000000	     25.68627558	     -8.66633824	      9.40198474	     63.92270238
